<svg width="1280" height="832" viewBox="0 0 1280 832" fill="none" xmlns="http://www.w3.org/2000/svg">
<g clip-path="url(#clip0_7_2)">
<rect width="1280" height="832" fill="#0CAFF5"/>
<path fill-rule="evenodd" clip-rule="evenodd" d="M388.819 -21.4953C358.687 73.7646 269.385 124.918 196.79 193.55C116.175 269.763 58.9966 392.593 -51.896 395.156C-166.68 397.808 -250.075 293.729 -323.662 205.578C-396.826 117.933 -491.425 15.6867 -460.403 -94.2004C-430.256 -200.986 -277.039 -196.963 -190.442 -266.315C-108.445 -331.982 -79.586 -459.597 23.1542 -481.458C148.424 -508.113 300.985 -488.105 380.694 -387.84C459.703 -288.456 427.114 -142.56 388.819 -21.4953Z" fill="white"/>
<path fill-rule="evenodd" clip-rule="evenodd" d="M818.505 1310.78C794.424 1213.82 843.838 1123.54 869.875 1027.09C898.789 919.988 883.362 785.383 976.574 725.256C1073.06 663.019 1198.54 708.186 1307.35 744.898C1415.52 781.398 1549.61 819.149 1580.57 929.052C1610.66 1035.85 1477.92 1112.48 1440.32 1216.86C1404.72 1315.69 1446.8 1439.58 1370.62 1511.9C1277.74 1600.08 1137.2 1662.74 1016.85 1618.9C897.555 1575.44 849.11 1434.02 818.505 1310.78Z" fill="white"/>
<path fill-rule="evenodd" clip-rule="evenodd" d="M978.02 -118.595C1023.41 -188.341 1122.78 -181.506 1203.87 -200.217C1274.33 -216.476 1346.03 -248.875 1411.74 -218.676C1479.51 -187.528 1517.23 -116.814 1539.93 -45.7659C1562.65 25.3505 1561.77 99.645 1535.81 169.644C1505.61 251.066 1470.19 350.514 1385.63 370.272C1302.22 389.759 1239.71 300.364 1166.48 255.933C1102 216.807 1023.06 197.088 989.153 129.712C950.437 52.7735 931.04 -46.4059 978.02 -118.595Z" fill="#0DB7FF"/>
<path fill-rule="evenodd" clip-rule="evenodd" d="M39.1084 1125.41C-29.6535 1109.96 -70.9777 1050.26 -123.58 1003.36C-181.993 951.274 -271.759 918.471 -280.233 840.669C-289.004 760.137 -220.874 695.248 -163.349 638.212C-106.154 581.504 -39.9871 508.849 39.1084 524.044C115.972 538.81 122.363 646.761 176.314 703.463C227.399 757.154 318.824 769.76 340.37 840.669C366.64 927.128 361.758 1035.58 296.088 1097.65C230.994 1159.17 126.497 1145.04 39.1084 1125.41Z" fill="#0DB7FF"/>
</g>
<defs>
<clipPath id="clip0_7_2">
<rect width="1280" height="832" fill="white"/>
</clipPath>
</defs>
</svg>
