<svg width="1280" height="832" viewBox="0 0 1280 832" fill="none" xmlns="http://www.w3.org/2000/svg">
<g clip-path="url(#clip0_9_29)">
<rect width="1280" height="832" fill="#FAFAFA"/>
<path fill-rule="evenodd" clip-rule="evenodd" d="M388.819 -21.4953C358.687 73.7646 269.385 124.918 196.79 193.55C116.175 269.763 58.9966 392.593 -51.896 395.156C-166.68 397.808 -250.075 293.729 -323.662 205.578C-396.826 117.933 -491.425 15.6867 -460.403 -94.2004C-430.256 -200.986 -277.039 -196.963 -190.442 -266.315C-108.445 -331.982 -79.586 -459.597 23.1542 -481.458C148.424 -508.113 300.985 -488.105 380.694 -387.84C459.703 -288.456 427.114 -142.56 388.819 -21.4953Z" fill="white"/>
<path fill-rule="evenodd" clip-rule="evenodd" d="M1546.72 -11.6274C1625.59 49.6981 1642.57 151.203 1681.73 243.108C1725.22 345.166 1820.57 441.426 1784.48 546.313C1747.12 654.881 1620.57 696.962 1512.35 735.374C1404.76 773.566 1276.03 826.79 1183.75 759.553C1094.07 694.213 1151.03 551.92 1116.05 446.633C1082.92 346.941 973.262 275.578 988.423 171.638C1006.91 44.9051 1078.63 -91.2245 1200.33 -131.174C1320.96 -170.772 1446.47 -89.5651 1546.72 -11.6274Z" fill="white"/>
<path fill-rule="evenodd" clip-rule="evenodd" d="M978.02 -118.595C1023.41 -188.341 1122.78 -181.506 1203.87 -200.217C1274.33 -216.476 1346.03 -248.875 1411.74 -218.676C1479.51 -187.528 1517.23 -116.814 1539.93 -45.7659C1562.65 25.3505 1561.77 99.645 1535.81 169.644C1505.61 251.066 1470.19 350.514 1385.63 370.272C1302.22 389.759 1239.71 300.364 1166.48 255.933C1102 216.807 1023.06 197.088 989.153 129.712C950.437 52.7735 931.04 -46.4059 978.02 -118.595Z" fill="#0DB7FF"/>
<path fill-rule="evenodd" clip-rule="evenodd" d="M39.1084 1125.41C-29.6535 1109.96 -70.9777 1050.26 -123.58 1003.36C-181.993 951.274 -271.759 918.471 -280.233 840.669C-289.004 760.137 -220.874 695.248 -163.349 638.212C-106.154 581.504 -39.9871 508.849 39.1084 524.044C115.972 538.81 122.363 646.761 176.314 703.463C227.399 757.154 318.824 769.76 340.37 840.669C366.64 927.128 361.758 1035.58 296.088 1097.65C230.994 1159.17 126.497 1145.04 39.1084 1125.41Z" fill="#0DB7FF"/>
</g>
<defs>
<clipPath id="clip0_9_29">
<rect width="1280" height="832" fill="white"/>
</clipPath>
</defs>
</svg>
