<svg width="1280" height="832" viewBox="0 0 1280 832" fill="none" xmlns="http://www.w3.org/2000/svg">
<g clip-path="url(#clip0_9_56)">
<rect width="1280" height="832" fill="#0DB7FF"/>
<path fill-rule="evenodd" clip-rule="evenodd" d="M1285.13 -255.61C1377.39 -247.377 1454.95 -198.379 1523.47 -137.681C1596.54 -72.943 1691.5 -1.25901 1680.06 94.2624C1668.84 187.895 1537.33 206.7 1473.71 277.784C1399.71 360.459 1396.59 519.563 1285.13 535.517C1174.44 551.36 1084.13 437.16 1031.5 341.077C990.12 265.518 1048.79 179.726 1043.45 94.2624C1037.36 -3.33329 942.609 -103.367 998.661 -184.514C1055.81 -267.252 1183.11 -264.714 1285.13 -255.61Z" fill="#0CAFF5"/>
<path fill-rule="evenodd" clip-rule="evenodd" d="M160.911 980.269C65.4718 984.731 -9.9652 921.502 -95.5581 879.047C-190.606 831.902 -319.729 821.209 -358.71 722.531C-399.059 620.39 -333.259 511.122 -278.506 415.922C-224.068 321.271 -163.619 202.553 -54.7611 194.052C51.0244 185.79 98.0955 324.632 188.967 379.415C275.01 431.288 399.059 414.982 452.658 499.96C518.011 603.573 550.523 747.113 486.927 851.813C423.889 955.593 282.203 974.598 160.911 980.269Z" fill="#0CAFF5"/>
<path fill-rule="evenodd" clip-rule="evenodd" d="M1328.29 447.797C1410.96 457.317 1449.16 549.308 1502.07 613.537C1548.05 669.352 1609.03 719.076 1611.3 791.355C1613.65 865.904 1567.18 931.199 1513.71 983.203C1460.2 1035.26 1393.31 1067.6 1319.08 1075.59C1232.73 1084.87 1127.93 1097.53 1072.53 1030.65C1017.89 964.692 1070.02 868.873 1077.13 783.515C1083.39 708.35 1065.83 628.899 1111.01 568.505C1162.61 499.539 1242.73 437.944 1328.29 447.797Z" fill="#FAFAFA"/>
<path fill-rule="evenodd" clip-rule="evenodd" d="M-260.051 125.089C-276.891 56.6543 -241.889 -6.95776 -223.37 -74.9572C-202.805 -150.468 -213.48 -245.442 -147.624 -287.725C-79.457 -331.492 9.00619 -299.454 85.7118 -273.405C161.976 -247.506 256.515 -220.687 278.192 -143.117C299.256 -67.7367 205.487 -13.8706 178.798 59.707C153.527 129.375 183.019 216.826 129.162 267.736C63.4953 329.809 -35.7503 373.808 -120.593 342.714C-204.69 311.892 -238.65 212.062 -260.051 125.089Z" fill="#FAFAFA"/>
</g>
<defs>
<clipPath id="clip0_9_56">
<rect width="1280" height="832" fill="white"/>
</clipPath>
</defs>
</svg>
